<svg xmlns="http://www.w3.org/2000/svg" viewBox="0 0 1200 900" role="img" aria-labelledby="title desc">
  <title id="title">Concept slide 1</title>
  <desc id="desc">Collection enfants Rose et Bleu</desc>
  <defs>
    <linearGradient id="bg1" x1="0%" y1="0%" x2="100%" y2="100%">
      <stop offset="0%" stop-color="#ffd9cd" />
      <stop offset="55%" stop-color="#ffeef8" />
      <stop offset="100%" stop-color="#d8eeff" />
    </linearGradient>
    <linearGradient id="card1" x1="0%" y1="0%" x2="100%" y2="100%">
      <stop offset="0%" stop-color="#ffffff" />
      <stop offset="100%" stop-color="#f9fcff" />
    </linearGradient>
  </defs>

  <rect width="1200" height="900" fill="url(#bg1)" />

  <g transform="translate(120 150)">
    <rect x="0" y="0" width="430" height="560" rx="36" fill="url(#card1)" />
    <rect x="38" y="44" width="354" height="270" rx="22" fill="#ffe7f2" />
    <path d="M145 210 L190 126 L236 152 L269 136 L315 210 L298 248 L258 260 L258 332 L186 332 L186 260 L145 248 Z" fill="#ea67a5" />
    <circle cx="192" cy="122" r="10" fill="#ffbedb" />
    <circle cx="256" cy="132" r="8" fill="#ffbedb" />
    <text x="38" y="376" fill="#25384f" font-family="Trebuchet MS, Segoe UI, sans-serif" font-size="36" font-weight="800">
      New wardrobe
    </text>
    <text x="38" y="424" fill="#526783" font-family="Trebuchet MS, Segoe UI, sans-serif" font-size="26">
      Couleurs douces et coupes confort.
    </text>
  </g>

  <g transform="translate(620 210)">
    <rect x="0" y="0" width="440" height="470" rx="34" fill="#ffffff" opacity="0.92" />
    <rect x="34" y="36" width="372" height="160" rx="20" fill="#e8f5ff" />
    <path d="M126 126 C126 75 308 75 308 126 C308 178 126 178 126 126 Z" fill="#52a5df" />
    <circle cx="190" cy="122" r="9" fill="#d8efff" />
    <circle cx="246" cy="122" r="9" fill="#d8efff" />
    <path d="M190 152 C201 165 235 165 246 152" stroke="#d8efff" stroke-width="8" stroke-linecap="round" fill="none" />

    <rect x="34" y="224" width="176" height="206" rx="18" fill="#fff1e7" />
    <rect x="230" y="224" width="176" height="206" rx="18" fill="#f0f7ff" />
    <text x="64" y="354" fill="#32465f" font-family="Trebuchet MS, Segoe UI, sans-serif" font-size="23" font-weight="700">Girls</text>
    <text x="264" y="354" fill="#32465f" font-family="Trebuchet MS, Segoe UI, sans-serif" font-size="23" font-weight="700">Boys</text>
  </g>
</svg>
