<svg xmlns="http://www.w3.org/2000/svg" viewBox="0 0 1200 900" role="img" aria-labelledby="title desc">
  <title id="title">Concept slide 4</title>
  <desc id="desc">Confiance et qualite Rose et Bleu</desc>
  <defs>
    <linearGradient id="bg4" x1="0%" y1="0%" x2="100%" y2="100%">
      <stop offset="0%" stop-color="#ffe6d8" />
      <stop offset="50%" stop-color="#fff2f9" />
      <stop offset="100%" stop-color="#d9edff" />
    </linearGradient>
    <filter id="shadow4" x="-30%" y="-30%" width="160%" height="180%">
      <feDropShadow dx="0" dy="12" stdDeviation="12" flood-color="#243147" flood-opacity="0.15" />
    </filter>
  </defs>

  <rect width="1200" height="900" fill="url(#bg4)" />

  <g transform="translate(94 120)" filter="url(#shadow4)">
    <rect x="0" y="0" width="1012" height="660" rx="44" fill="#ffffff" />

    <g transform="translate(58 66)">
      <rect x="0" y="0" width="896" height="208" rx="26" fill="#f4f9ff" />
      <text x="42" y="82" fill="#22354d" font-family="Trebuchet MS, Segoe UI, sans-serif" font-size="46" font-weight="800">
        Un concept qui rassure
      </text>
      <text x="42" y="136" fill="#5b728e" font-family="Trebuchet MS, Segoe UI, sans-serif" font-size="28">
        Presentation claire des produits et des avantages.
      </text>
    </g>

    <g transform="translate(58 316)">
      <rect x="0" y="0" width="278" height="280" rx="24" fill="#fff1f6" />
      <circle cx="139" cy="82" r="44" fill="#ed79af" />
      <path d="M119 84 L136 102 L161 66" stroke="#ffd4e7" stroke-width="10" fill="none" stroke-linecap="round" />
      <text x="58" y="174" fill="#344c66" font-family="Trebuchet MS, Segoe UI, sans-serif" font-size="28" font-weight="700">Qualite</text>
      <text x="46" y="214" fill="#5f7590" font-family="Trebuchet MS, Segoe UI, sans-serif" font-size="22">Produits verifies</text>
    </g>

    <g transform="translate(366 316)">
      <rect x="0" y="0" width="278" height="280" rx="24" fill="#edf6ff" />
      <circle cx="139" cy="82" r="44" fill="#62afe6" />
      <path d="M112 90 H166" stroke="#d8efff" stroke-width="9" stroke-linecap="round" />
      <path d="M126 108 H152" stroke="#d8efff" stroke-width="9" stroke-linecap="round" />
      <text x="52" y="174" fill="#344c66" font-family="Trebuchet MS, Segoe UI, sans-serif" font-size="28" font-weight="700">Simplicite</text>
      <text x="50" y="214" fill="#5f7590" font-family="Trebuchet MS, Segoe UI, sans-serif" font-size="22">Parcours rapide</text>
    </g>

    <g transform="translate(674 316)">
      <rect x="0" y="0" width="278" height="280" rx="24" fill="#fff4e9" />
      <circle cx="139" cy="82" r="44" fill="#efb468" />
      <path d="M139 58 V108" stroke="#ffe1bb" stroke-width="9" stroke-linecap="round" />
      <path d="M114 84 H164" stroke="#ffe1bb" stroke-width="9" stroke-linecap="round" />
      <text x="56" y="174" fill="#344c66" font-family="Trebuchet MS, Segoe UI, sans-serif" font-size="28" font-weight="700">Confiance</text>
      <text x="45" y="214" fill="#5f7590" font-family="Trebuchet MS, Segoe UI, sans-serif" font-size="22">Service accompagne</text>
    </g>
  </g>
</svg>
