<svg xmlns="http://www.w3.org/2000/svg" viewBox="0 0 1600 720" role="img" aria-labelledby="title desc">
  <title id="title">Hero slide promotions saison</title>
  <desc id="desc">Ambiance festive promotions vetements enfants</desc>
  <defs>
    <linearGradient id="bgC" x1="0%" y1="0%" x2="100%" y2="100%">
      <stop offset="0%" stop-color="#ffe0d2" />
      <stop offset="42%" stop-color="#ffeef8" />
      <stop offset="100%" stop-color="#d4ebff" />
    </linearGradient>
    <linearGradient id="tagA" x1="0%" y1="0%" x2="100%" y2="100%">
      <stop offset="0%" stop-color="#ff7d8a" />
      <stop offset="100%" stop-color="#e84f67" />
    </linearGradient>
    <linearGradient id="tagB" x1="0%" y1="0%" x2="100%" y2="100%">
      <stop offset="0%" stop-color="#65b8ff" />
      <stop offset="100%" stop-color="#3a91d6" />
    </linearGradient>
    <linearGradient id="panelC" x1="0%" y1="0%" x2="100%" y2="100%">
      <stop offset="0%" stop-color="#ffffff" />
      <stop offset="100%" stop-color="#f7fbff" />
    </linearGradient>
    <filter id="shadowC" x="-30%" y="-30%" width="160%" height="180%">
      <feDropShadow dx="0" dy="12" stdDeviation="14" flood-color="#1d2838" flood-opacity="0.16" />
    </filter>
  </defs>

  <rect width="1600" height="720" fill="url(#bgC)" />

  <path
    d="M0 98 C220 148 415 66 632 114 C842 162 1048 82 1262 120 C1370 138 1482 150 1600 128 V0 H0 Z"
    fill="#ffffff"
    opacity="0.34"
  />

  <g opacity="0.35">
    <circle cx="170" cy="210" r="72" fill="#ffcedf" />
    <circle cx="1440" cy="210" r="72" fill="#c9e6ff" />
    <circle cx="286" cy="120" r="22" fill="#ffcedf" />
    <circle cx="1328" cy="120" r="22" fill="#c9e6ff" />
  </g>

  <g transform="translate(852 112)" filter="url(#shadowC)">
    <rect x="0" y="0" width="700" height="480" rx="34" fill="url(#panelC)" />

    <g transform="translate(56 64)">
      <rect x="0" y="0" width="266" height="156" rx="22" fill="#fff0f4" />
      <rect x="20" y="20" width="104" height="42" rx="14" fill="url(#tagA)" />
      <text x="36" y="47" fill="#fff" font-family="Trebuchet MS, Segoe UI, sans-serif" font-size="24" font-weight="800">
        -30%
      </text>
      <text x="22" y="92" fill="#3a4d66" font-family="Trebuchet MS, Segoe UI, sans-serif" font-size="22" font-weight="700">
        Outerwear kids
      </text>
      <text x="22" y="122" fill="#62748d" font-family="Trebuchet MS, Segoe UI, sans-serif" font-size="18">
        Vestes, sweats, manteaux.
      </text>
    </g>

    <g transform="translate(378 64)">
      <rect x="0" y="0" width="266" height="156" rx="22" fill="#eef7ff" />
      <rect x="20" y="20" width="104" height="42" rx="14" fill="url(#tagB)" />
      <text x="36" y="47" fill="#fff" font-family="Trebuchet MS, Segoe UI, sans-serif" font-size="24" font-weight="800">
        -20%
      </text>
      <text x="22" y="92" fill="#3a4d66" font-family="Trebuchet MS, Segoe UI, sans-serif" font-size="22" font-weight="700">
        Shoes and basics
      </text>
      <text x="22" y="122" fill="#62748d" font-family="Trebuchet MS, Segoe UI, sans-serif" font-size="18">
        Comfort first collection.
      </text>
    </g>

    <g transform="translate(56 256)">
      <rect x="0" y="0" width="588" height="164" rx="24" fill="#ffffff" stroke="#dfe6f1" stroke-width="2" />

      <g transform="translate(26 22)">
        <rect x="0" y="0" width="164" height="118" rx="18" fill="#ffeaf1" />
        <path d="M52 78 L82 32 L112 78 Z" fill="#ef6aa2" />
        <rect x="66" y="78" width="32" height="20" rx="9" fill="#ffbad5" />
      </g>

      <g transform="translate(216 22)">
        <rect x="0" y="0" width="164" height="118" rx="18" fill="#e9f5ff" />
        <path d="M48 82 C50 54, 112 54, 114 82 L100 82 C98 66, 64 66, 62 82 Z" fill="#4f9fdc" />
        <rect x="46" y="82" width="70" height="24" rx="12" fill="#8ec8ee" />
      </g>

      <g transform="translate(406 22)">
        <rect x="0" y="0" width="156" height="118" rx="18" fill="#fff4e8" />
        <circle cx="78" cy="58" r="40" fill="#efb36d" />
        <circle cx="64" cy="50" r="6" fill="#ffe0ba" />
        <circle cx="92" cy="50" r="6" fill="#ffe0ba" />
        <path d="M62 73 C68 80, 88 80, 94 73" fill="none" stroke="#ffe0ba" stroke-width="5" stroke-linecap="round" />
      </g>
    </g>
  </g>

  <path
    d="M0 586 C228 548 426 668 650 620 C872 574 1088 676 1320 624 C1418 602 1504 610 1600 636 L1600 720 L0 720 Z"
    fill="#ffffff"
    opacity="0.58"
  />
</svg>
